<svg xmlns="http://www.w3.org/2000/svg" width="37.36" height="37.36" viewBox="0 0 37.36 37.36"><defs><style>.a{fill:#ef4c00;}.b{fill:#fff;}</style></defs><path class="a" d="M18.68,0A18.68,18.68,0,1,1,0,18.68,18.68,18.68,0,0,1,18.68,0Z"/><path class="b" d="M13.761,6.255V5A5,5,0,1,0,3.753,5V6.255H0V16.889a3.128,3.128,0,0,0,3.128,3.128H14.387a3.128,3.128,0,0,0,3.128-3.128V6.255ZM6.255,5a2.5,2.5,0,1,1,5,0V6.255h-5ZM12.51,9.7a.938.938,0,1,1,.938-.938A.938.938,0,0,1,12.51,9.7ZM5,9.7a.938.938,0,1,1,.938-.938A.938.938,0,0,1,5,9.7Z" transform="translate(9.554 8.672)"/></svg>